<mxfile host="app.diagrams.net" modified="2021-02-23T11:58:32.577Z" agent="5.0 (Windows NT 10.0; Win64; x64) AppleWebKit/537.36 (KHTML, like Gecko) Chrome/87.0.4280.67 Safari/537.36 Edg/87.0.664.55" etag="FwWpr-XbC5VZYDYGfH9h" version="14.4.2" type="github">
  <diagram name="Page-1" id="c7488fd3-1785-93aa-aadb-54a6760d102a">
    <mxGraphModel dx="782" dy="446" grid="0" gridSize="10" guides="1" tooltips="1" connect="1" arrows="1" fold="1" page="1" pageScale="1" pageWidth="1100" pageHeight="850" background="#ffffff" math="0" shadow="0">
      <root>
        <mxCell id="0" />
        <mxCell id="1" parent="0" />
        <mxCell id="2b4e8129b02d487f-1" value="Package-based resource sharing" style="swimlane;html=1;childLayout=stackLayout;horizontal=1;startSize=20;horizontalStack=0;rounded=0;shadow=0;labelBackgroundColor=none;strokeWidth=1;fontFamily=Verdana;fontSize=8;align=center;" parent="1" vertex="1">
          <mxGeometry x="210" y="70" width="690" height="320" as="geometry" />
        </mxCell>
        <mxCell id="2b4e8129b02d487f-2" value="Source Project" style="swimlane;html=1;startSize=20;horizontal=0;" parent="2b4e8129b02d487f-1" vertex="1">
          <mxGeometry y="20" width="690" height="150" as="geometry" />
        </mxCell>
        <mxCell id="2b4e8129b02d487f-18" style="edgeStyle=orthogonalEdgeStyle;rounded=0;html=1;labelBackgroundColor=none;startArrow=none;startFill=0;startSize=5;endArrow=classicThin;endFill=1;endSize=5;jettySize=auto;orthogonalLoop=1;strokeWidth=1;fontFamily=Verdana;fontSize=8" parent="2b4e8129b02d487f-2" source="2b4e8129b02d487f-5" target="2b4e8129b02d487f-6" edge="1">
          <mxGeometry relative="1" as="geometry" />
        </mxCell>
        <mxCell id="2b4e8129b02d487f-5" value="Start" style="ellipse;whiteSpace=wrap;html=1;rounded=0;shadow=0;labelBackgroundColor=none;strokeWidth=1;fontFamily=Verdana;fontSize=8;align=center;" parent="2b4e8129b02d487f-2" vertex="1">
          <mxGeometry x="40" y="60" width="30" height="30" as="geometry" />
        </mxCell>
        <mxCell id="2b4e8129b02d487f-6" value="Create package" style="rounded=1;whiteSpace=wrap;html=1;shadow=0;labelBackgroundColor=none;strokeWidth=1;fontFamily=Verdana;fontSize=8;align=center;" parent="2b4e8129b02d487f-2" vertex="1">
          <mxGeometry x="100" y="53.25" width="70" height="43.5" as="geometry" />
        </mxCell>
        <mxCell id="2b4e8129b02d487f-12" value="Add project objects to package" style="rounded=1;whiteSpace=wrap;html=1;shadow=0;labelBackgroundColor=none;strokeWidth=1;fontFamily=Verdana;fontSize=8;align=center;" parent="2b4e8129b02d487f-2" vertex="1">
          <mxGeometry x="200" y="53.25" width="90" height="43.5" as="geometry" />
        </mxCell>
        <mxCell id="2b4e8129b02d487f-24" style="edgeStyle=orthogonalEdgeStyle;rounded=0;html=1;labelBackgroundColor=none;startArrow=none;startFill=0;startSize=5;endArrow=classicThin;endFill=1;endSize=5;jettySize=auto;orthogonalLoop=1;strokeWidth=1;fontFamily=Verdana;fontSize=8" parent="2b4e8129b02d487f-2" source="2b4e8129b02d487f-6" target="2b4e8129b02d487f-12" edge="1">
          <mxGeometry relative="1" as="geometry" />
        </mxCell>
        <mxCell id="2b4e8129b02d487f-14" value="Allow other project to install package" style="rounded=1;whiteSpace=wrap;html=1;shadow=0;labelBackgroundColor=none;strokeWidth=1;fontFamily=Verdana;fontSize=8;align=center;" parent="2b4e8129b02d487f-2" vertex="1">
          <mxGeometry x="320" y="53.25" width="70" height="43.5" as="geometry" />
        </mxCell>
        <mxCell id="e7BhG49IiwBrPG05aqch-2" style="edgeStyle=orthogonalEdgeStyle;rounded=0;html=1;labelBackgroundColor=none;startArrow=none;startFill=0;startSize=5;endArrow=classicThin;endFill=1;endSize=5;jettySize=auto;orthogonalLoop=1;strokeWidth=1;fontFamily=Verdana;fontSize=8;entryX=0;entryY=0.5;entryDx=0;entryDy=0;exitX=1;exitY=0.5;exitDx=0;exitDy=0;" edge="1" parent="2b4e8129b02d487f-2" source="2b4e8129b02d487f-12" target="2b4e8129b02d487f-14">
          <mxGeometry relative="1" as="geometry">
            <mxPoint x="310" y="74.5" as="sourcePoint" />
            <mxPoint x="360" y="74.5" as="targetPoint" />
          </mxGeometry>
        </mxCell>
        <mxCell id="e7BhG49IiwBrPG05aqch-18" value="&lt;span style=&quot;color: rgb(51 , 51 , 51) ; font-family: &amp;#34;roboto&amp;#34; , &amp;#34;helvetica&amp;#34; , &amp;#34;tahoma&amp;#34; , &amp;#34;arial&amp;#34; , &amp;#34;hiragino sans gb&amp;#34; , &amp;#34;microsoft yahei&amp;#34; , &amp;#34;simsun&amp;#34; , sans-serif ; text-align: left ; background-color: rgb(255 , 255 , 255)&quot;&gt;&lt;font style=&quot;font-size: 8px&quot;&gt;Revoke other projectsâ€™ permission to install a package&lt;/font&gt;&lt;/span&gt;" style="rounded=1;whiteSpace=wrap;html=1;" vertex="1" parent="2b4e8129b02d487f-2">
          <mxGeometry x="440" y="50" width="120" height="50" as="geometry" />
        </mxCell>
        <mxCell id="e7BhG49IiwBrPG05aqch-17" value="&lt;font style=&quot;font-size: 8px&quot;&gt;Delete package&lt;/font&gt;" style="rounded=1;whiteSpace=wrap;html=1;" vertex="1" parent="2b4e8129b02d487f-2">
          <mxGeometry x="570" y="50" width="110" height="50" as="geometry" />
        </mxCell>
        <mxCell id="2b4e8129b02d487f-3" value="Target Project" style="swimlane;html=1;startSize=20;horizontal=0;" parent="2b4e8129b02d487f-1" vertex="1">
          <mxGeometry y="170" width="690" height="150" as="geometry" />
        </mxCell>
        <mxCell id="2b4e8129b02d487f-17" value="Install package" style="rounded=1;whiteSpace=wrap;html=1;shadow=0;labelBackgroundColor=none;strokeWidth=1;fontFamily=Verdana;fontSize=8;align=center;" parent="2b4e8129b02d487f-3" vertex="1">
          <mxGeometry x="50" y="70" width="70" height="37" as="geometry" />
        </mxCell>
        <mxCell id="2b4e8129b02d487f-9" value="Authorize package to user or role" style="rounded=1;whiteSpace=wrap;html=1;shadow=0;labelBackgroundColor=none;strokeWidth=1;fontFamily=Verdana;fontSize=8;align=center;" parent="2b4e8129b02d487f-3" vertex="1">
          <mxGeometry x="150" y="69.99999999999997" width="70" height="37" as="geometry" />
        </mxCell>
        <mxCell id="e7BhG49IiwBrPG05aqch-13" value="Uninstall package if not needed" style="rounded=1;whiteSpace=wrap;html=1;shadow=0;labelBackgroundColor=none;strokeWidth=1;fontFamily=Verdana;fontSize=8;align=center;" vertex="1" parent="2b4e8129b02d487f-3">
          <mxGeometry x="350" y="70" width="70" height="37" as="geometry" />
        </mxCell>
        <mxCell id="e7BhG49IiwBrPG05aqch-6" value="User consumes package" style="rounded=1;whiteSpace=wrap;html=1;shadow=0;labelBackgroundColor=none;strokeWidth=1;fontFamily=Verdana;fontSize=8;align=center;" vertex="1" parent="2b4e8129b02d487f-3">
          <mxGeometry x="250" y="70" width="70" height="37" as="geometry" />
        </mxCell>
        <mxCell id="e7BhG49IiwBrPG05aqch-7" value="" style="edgeStyle=orthogonalEdgeStyle;rounded=0;orthogonalLoop=1;jettySize=auto;html=1;" edge="1" parent="2b4e8129b02d487f-3" source="2b4e8129b02d487f-9" target="e7BhG49IiwBrPG05aqch-6">
          <mxGeometry relative="1" as="geometry" />
        </mxCell>
        <mxCell id="e7BhG49IiwBrPG05aqch-14" value="" style="edgeStyle=orthogonalEdgeStyle;rounded=0;orthogonalLoop=1;jettySize=auto;html=1;" edge="1" parent="2b4e8129b02d487f-3" source="e7BhG49IiwBrPG05aqch-6" target="e7BhG49IiwBrPG05aqch-13">
          <mxGeometry relative="1" as="geometry" />
        </mxCell>
        <mxCell id="e7BhG49IiwBrPG05aqch-16" value="&lt;font style=&quot;font-size: 8px&quot;&gt;Describe package&lt;/font&gt;" style="rounded=1;whiteSpace=wrap;html=1;" vertex="1" parent="2b4e8129b02d487f-3">
          <mxGeometry x="530" y="-20" width="80" height="40" as="geometry" />
        </mxCell>
        <mxCell id="e7BhG49IiwBrPG05aqch-3" style="edgeStyle=orthogonalEdgeStyle;rounded=0;html=1;labelBackgroundColor=none;startArrow=none;startFill=0;startSize=5;endArrow=classicThin;endFill=1;endSize=5;jettySize=auto;orthogonalLoop=1;strokeWidth=1;fontFamily=Verdana;fontSize=8;exitX=1;exitY=0.5;exitDx=0;exitDy=0;entryX=0;entryY=0.5;entryDx=0;entryDy=0;" edge="1" parent="2b4e8129b02d487f-3" source="2b4e8129b02d487f-17" target="2b4e8129b02d487f-9">
          <mxGeometry relative="1" as="geometry">
            <mxPoint x="180" y="-65" as="sourcePoint" />
            <mxPoint x="160" y="89" as="targetPoint" />
          </mxGeometry>
        </mxCell>
        <mxCell id="2b4e8129b02d487f-28" style="edgeStyle=orthogonalEdgeStyle;rounded=0;html=1;labelBackgroundColor=none;startArrow=none;startFill=0;startSize=5;endArrow=classicThin;endFill=1;endSize=5;jettySize=auto;orthogonalLoop=1;strokeWidth=1;fontFamily=Verdana;fontSize=8;entryX=0;entryY=0.5;entryDx=0;entryDy=0;" parent="2b4e8129b02d487f-1" source="2b4e8129b02d487f-14" target="2b4e8129b02d487f-17" edge="1">
          <mxGeometry relative="1" as="geometry">
            <mxPoint x="330" y="395.5" as="targetPoint" />
            <Array as="points">
              <mxPoint x="405" y="200" />
              <mxPoint x="30" y="200" />
              <mxPoint x="30" y="259" />
            </Array>
          </mxGeometry>
        </mxCell>
        <mxCell id="e7BhG49IiwBrPG05aqch-15" value="&lt;font style=&quot;font-size: 8px&quot;&gt;Show packages&lt;/font&gt;" style="rounded=1;whiteSpace=wrap;html=1;" vertex="1" parent="1">
          <mxGeometry x="660" y="220" width="70" height="40" as="geometry" />
        </mxCell>
        <mxCell id="e7BhG49IiwBrPG05aqch-19" value="Consume package" style="text;html=1;align=center;verticalAlign=middle;resizable=0;points=[];autosize=1;" vertex="1" parent="1">
          <mxGeometry x="690" y="320" width="120" height="20" as="geometry" />
        </mxCell>
        <mxCell id="e7BhG49IiwBrPG05aqch-20" value="Produce package" style="text;html=1;align=center;verticalAlign=middle;resizable=0;points=[];autosize=1;" vertex="1" parent="1">
          <mxGeometry x="305" y="100" width="110" height="20" as="geometry" />
        </mxCell>
      </root>
    </mxGraphModel>
  </diagram>
</mxfile>
